<?xml version="1.0" encoding="UTF-8" standalone="no"?>
<!DOCTYPE svg PUBLIC "-//W3C//DTD SVG 1.1//EN" "http://www.w3.org/Graphics/SVG/1.1/DTD/svg11.dtd">
<svg width="100%" height="100%" viewBox="0 0 804 804" version="1.1" xmlns="http://www.w3.org/2000/svg" xmlns:xlink="http://www.w3.org/1999/xlink" xml:space="preserve" xmlns:serif="http://www.serif.com/" style="fill-rule:evenodd;clip-rule:evenodd;stroke-linejoin:round;stroke-miterlimit:2;">
    <g transform="matrix(1,0,0,1,-661.417,-3259.84)">
        <g>
            <path d="M1417.73,3259.84C1443.6,3259.84 1464.57,3280.81 1464.57,3306.68L1464.57,3780.85C1464.57,3936.67 1338.25,4062.99 1182.42,4062.99L708.253,4062.99C682.386,4062.99 661.417,4042.02 661.417,4016.16L661.417,3541.99C661.417,3386.16 787.737,3259.84 943.561,3259.84L1417.73,3259.84Z" style="fill:white;"/>
            <path d="M1062.99,3307.09C1258.55,3307.09 1417.32,3465.86 1417.32,3661.42C1417.32,3856.98 1258.55,4015.75 1062.99,4015.75C867.432,4015.75 708.661,3856.98 708.661,3661.42C708.661,3465.86 867.432,3307.09 1062.99,3307.09ZM1062.99,3413.39C1199.88,3413.39 1311.02,3524.53 1311.02,3661.42C1311.02,3798.31 1199.88,3909.45 1062.99,3909.45C926.1,3909.45 814.961,3798.31 814.961,3661.42C814.961,3524.53 926.1,3413.39 1062.99,3413.39Z" style="fill:rgb(44,113,170);"/>
            <g transform="matrix(2.35294,0,0,3.73333,-166.744,-9653.54)">
                <path d="M372.047,3661.42L412.205,3484.25L472.441,3484.25L432.283,3661.42L372.047,3661.42Z" style="fill:rgb(52,159,180);"/>
                <path d="M361.529,3660.47L401.687,3483.31C402.434,3480.01 406.917,3477.56 412.205,3477.56L472.441,3477.56C475.521,3477.56 478.45,3478.4 480.468,3479.86C482.486,3481.33 483.395,3483.28 482.959,3485.2L442.802,3662.36C442.054,3665.66 437.571,3668.11 432.283,3668.11L372.047,3668.11C368.967,3668.11 366.039,3667.27 364.021,3665.81C362.002,3664.34 361.093,3662.39 361.529,3660.47ZM372.047,3661.42L432.283,3661.42L472.441,3484.25L412.205,3484.25L372.047,3661.42Z" style="fill:white;"/>
            </g>
            <g transform="matrix(1.13404,-0.654737,0.5,0.866025,-1973.19,1186.52)">
                <g transform="matrix(0.978542,-0.978542,0.978542,0.978542,-3560.04,1118.73)">
                    <path d="M1029.56,3606.18C1020.62,3611.35 1012.93,3619.04 1007.75,3627.98C984.853,3667.54 919.123,3781.07 894.917,3822.88C893.567,3825.21 893.661,3827.77 895.149,3829.26C896.638,3830.75 899.197,3830.84 901.528,3829.49C943.336,3805.29 1056.86,3739.56 1096.42,3716.66C1105.37,3711.48 1113.06,3703.79 1118.23,3694.85C1141.13,3655.29 1206.84,3541.76 1231.04,3499.95C1232.39,3497.62 1232.29,3495.06 1230.8,3493.57C1229.31,3492.09 1226.76,3491.99 1224.42,3493.34C1182.62,3517.55 1069.11,3583.28 1029.56,3606.18Z" style="fill:rgb(46,112,171);"/>
                    <path d="M1021.23,3583.81L1216.09,3470.97L1226.09,3466.78L1235.87,3465.62L1244.77,3467.46L1252.09,3472.28L1256.91,3479.6L1258.76,3488.5L1257.6,3498.28L1253.41,3508.28L1140.6,3703.17C1132.09,3717.88 1119.45,3730.52 1104.75,3739.03L909.859,3851.86L899.861,3856.05L890.076,3857.21L881.182,3855.37L873.859,3850.55L869.039,3843.23L867.197,3834.33L868.359,3824.55L872.549,3814.55L985.384,3619.65C993.893,3604.95 1006.53,3592.32 1021.23,3583.81ZM1029.56,3606.18C1020.62,3611.35 1012.93,3619.04 1007.75,3627.98L894.917,3822.88C893.567,3825.21 893.661,3827.77 895.149,3829.26C896.638,3830.75 899.197,3830.84 901.528,3829.49L1096.42,3716.66C1105.37,3711.48 1113.06,3703.79 1118.23,3694.85L1231.04,3499.95C1232.39,3497.62 1232.29,3495.06 1230.8,3493.57C1229.31,3492.09 1226.76,3491.99 1224.42,3493.34L1029.56,3606.18Z" style="fill:white;"/>
                </g>
                <path d="M1063.03,3661.14L1063.03,3982.28L1062.99,3982.28C1058.93,3982.28 1055.37,3979.54 1054.32,3975.62L974.978,3678.08C973.498,3672.53 972.77,3666.84 972.792,3661.14L1063.03,3661.14Z" style="fill:rgb(34,83,117);"/>
                <path d="M972.792,3661.14C972.814,3655.62 973.542,3650.1 974.977,3644.72L1054.29,3347.22C1055.34,3343.29 1058.89,3340.56 1062.96,3340.56L1063.03,3340.56L1063.03,3661.14L972.792,3661.14Z" style="fill:rgb(46,112,171);"/>
                <path d="M1153.19,3661.14C1153.21,3666.84 1152.48,3672.54 1151,3678.09L1071.66,3975.62C1070.62,3979.53 1067.08,3982.26 1063.03,3982.28L1063.03,3661.14L1153.19,3661.14Z" style="fill:rgb(46,112,171);"/>
                <path d="M1063.03,3661.14L1063.03,3340.56C1067.07,3340.59 1070.59,3343.31 1071.63,3347.22L1151,3644.72C1152.44,3650.1 1153.17,3655.62 1153.19,3661.14L1063.03,3661.14Z" style="fill:rgb(36,84,123);"/>
            </g>
            <g transform="matrix(2.11231,-2.34513e-16,2.34513e-16,2.11231,-1187.67,-4076.85)">
                <circle cx="1065.5" cy="3663.5" r="55.5" style="fill:rgb(86,146,140);"/>
                <path d="M1065.5,3598.14C1101.58,3598.14 1130.86,3627.43 1130.86,3663.5C1130.86,3699.58 1101.58,3728.86 1065.5,3728.86C1029.42,3728.86 1000.14,3699.58 1000.14,3663.5C1000.14,3627.43 1029.42,3598.14 1065.5,3598.14ZM1065.5,3608C1034.87,3608 1010,3632.87 1010,3663.5C1010,3694.13 1034.87,3719 1065.5,3719C1096.13,3719 1121,3694.13 1121,3663.5C1121,3632.87 1096.13,3608 1065.5,3608Z" style="fill:white;"/>
            </g>
            <g transform="matrix(2.35294,0,0,3.73333,305.697,-9700.79)">
                <path d="M372.047,3661.42L412.205,3484.25L472.441,3484.25L432.283,3661.42L372.047,3661.42Z" style="fill:rgb(52,159,180);"/>
                <path d="M361.529,3660.47L401.687,3483.31C402.434,3480.01 406.917,3477.56 412.205,3477.56L472.441,3477.56C475.521,3477.56 478.45,3478.4 480.468,3479.86C482.486,3481.33 483.395,3483.28 482.959,3485.2L442.802,3662.36C442.054,3665.66 437.571,3668.11 432.283,3668.11L372.047,3668.11C368.967,3668.11 366.039,3667.27 364.021,3665.81C362.002,3664.34 361.093,3662.39 361.529,3660.47ZM372.047,3661.42L432.283,3661.42L472.441,3484.25L412.205,3484.25L372.047,3661.42Z" style="fill:white;"/>
            </g>
        </g>
    </g>
</svg>
