<?xml version="1.0" encoding="UTF-8" standalone="no"?>
<!DOCTYPE svg PUBLIC "-//W3C//DTD SVG 1.1//EN" "http://www.w3.org/Graphics/SVG/1.1/DTD/svg11.dtd">
<svg width="100%" height="100%" viewBox="0 0 69 70" version="1.1" xmlns="http://www.w3.org/2000/svg" xmlns:xlink="http://www.w3.org/1999/xlink" xml:space="preserve" xmlns:serif="http://www.serif.com/" style="fill-rule:evenodd;clip-rule:evenodd;stroke-linejoin:round;stroke-miterlimit:2;">
    <g transform="matrix(1,0,0,1,-1150.58,-200)">
        <g transform="matrix(1.4,0,0,1.4,-460,-80)">
            <path d="M1178.29,200.217L1178.74,204.699C1180.53,205.029 1182.27,205.593 1183.91,206.378L1186.91,203.017C1188.84,204.066 1190.63,205.366 1192.23,206.884L1189.96,210.775C1191.21,212.093 1192.29,213.57 1193.15,215.169L1197.55,214.214C1198.5,216.2 1199.19,218.304 1199.59,220.47L1195.46,222.284C1195.7,224.087 1195.7,225.913 1195.46,227.716L1199.59,229.53C1199.19,231.696 1198.5,233.8 1197.55,235.786L1193.15,234.831C1192.29,236.43 1191.21,237.907 1189.96,239.225L1192.23,243.116C1190.63,244.634 1188.84,245.934 1186.91,246.983L1183.91,243.622C1182.27,244.407 1180.53,244.971 1178.74,245.301L1178.29,249.783C1176.11,250.072 1173.89,250.072 1171.71,249.783L1171.26,245.301C1169.47,244.971 1167.73,244.407 1166.09,243.622L1163.09,246.983C1161.16,245.934 1159.37,244.634 1157.77,243.116L1160.04,239.225C1158.79,237.907 1157.71,236.43 1156.85,234.831L1152.45,235.786C1151.5,233.8 1150.81,231.696 1150.41,229.53L1154.54,227.716C1154.3,225.913 1154.3,224.087 1154.54,222.284L1150.41,220.47C1150.81,218.304 1151.5,216.2 1152.45,214.214L1156.85,215.169C1157.71,213.57 1158.79,212.093 1160.04,210.775L1157.77,206.884C1159.37,205.366 1161.16,204.066 1163.09,203.017L1166.09,206.378C1167.73,205.593 1169.47,205.029 1171.26,204.699L1171.71,200.217C1173.89,199.928 1176.11,199.928 1178.29,200.217ZM1175,214.186C1180.97,214.186 1185.81,219.032 1185.81,225C1185.81,230.968 1180.97,235.814 1175,235.814C1169.03,235.814 1164.19,230.968 1164.19,225C1164.19,219.032 1169.03,214.186 1175,214.186Z" style="fill:rgb(213,213,213);"/>
        </g>
    </g>
</svg>
