<?xml version="1.0" encoding="UTF-8" standalone="no"?>
<!DOCTYPE svg PUBLIC "-//W3C//DTD SVG 1.1//EN" "http://www.w3.org/Graphics/SVG/1.1/DTD/svg11.dtd">
<svg width="100%" height="100%" viewBox="0 0 235 235" version="1.1" xmlns="http://www.w3.org/2000/svg" xmlns:xlink="http://www.w3.org/1999/xlink" xml:space="preserve" xmlns:serif="http://www.serif.com/" style="fill-rule:evenodd;clip-rule:evenodd;stroke-linejoin:round;stroke-miterlimit:2;">
    <g transform="matrix(1,0,0,1,-2325.61,-2954.54)">
        <g transform="matrix(0.707107,0.707107,-0.707107,0.707107,2760.13,-419.289)">
            <path d="M2220.47,2716.53L2137.8,2716.53C2131.28,2716.53 2125.98,2711.24 2125.98,2704.72L2125.98,2681.1C2125.98,2674.58 2131.28,2669.29 2137.8,2669.29L2220.47,2669.29L2220.47,2586.61C2220.47,2580.1 2225.76,2574.8 2232.28,2574.8L2255.91,2574.8C2262.42,2574.8 2267.72,2580.1 2267.72,2586.61L2267.72,2669.29L2350.39,2669.29C2356.91,2669.29 2362.2,2674.58 2362.2,2681.1L2362.2,2704.72C2362.2,2711.24 2356.91,2716.53 2350.39,2716.53L2267.72,2716.53L2267.72,2799.21C2267.72,2805.73 2262.42,2811.02 2255.91,2811.02L2232.28,2811.02C2225.76,2811.02 2220.47,2805.73 2220.47,2799.21L2220.47,2716.53Z" style="fill:rgb(74,74,74);"/>
            <path d="M2199.64,2737.37L2137.8,2737.37L2131.24,2736.7L2125.08,2734.79L2119.53,2731.78L2114.71,2727.81L2110.74,2722.99L2107.73,2717.44L2105.82,2711.28L2105.15,2704.72L2105.15,2681.1L2105.82,2674.54L2107.73,2668.39L2110.74,2662.84L2114.71,2658.02L2119.53,2654.05L2125.08,2651.03L2131.24,2649.12L2137.8,2648.46L2199.64,2648.46L2199.64,2586.61L2200.3,2580.05L2202.22,2573.9L2205.23,2568.35L2209.2,2563.53L2214.02,2559.56L2219.57,2556.55L2225.72,2554.63L2232.28,2553.97L2255.91,2553.97L2262.47,2554.63L2268.62,2556.55L2274.17,2559.56L2278.99,2563.53L2282.96,2568.35L2285.97,2573.9L2287.89,2580.05L2288.55,2586.61L2288.55,2648.46L2350.39,2648.46L2356.95,2649.12L2363.11,2651.03L2368.66,2654.05L2373.47,2658.02L2377.45,2662.84L2380.46,2668.39L2382.37,2674.54L2383.04,2681.1L2383.04,2704.72L2382.37,2711.28L2380.46,2717.44L2377.45,2722.99L2373.47,2727.81L2368.66,2731.78L2363.11,2734.79L2356.95,2736.7L2350.39,2737.37L2288.55,2737.37L2288.55,2799.21L2287.89,2805.77L2285.97,2811.93L2282.96,2817.48L2278.99,2822.29L2274.17,2826.27L2268.62,2829.28L2262.47,2831.19L2255.91,2831.86L2232.28,2831.86L2225.72,2831.19L2219.57,2829.28L2214.02,2826.27L2209.2,2822.29L2205.23,2817.48L2202.22,2811.93L2200.3,2805.77L2199.64,2799.21L2199.64,2737.37ZM2220.47,2716.53L2220.47,2799.21C2220.47,2805.73 2225.76,2811.02 2232.28,2811.02L2255.91,2811.02C2262.42,2811.02 2267.72,2805.73 2267.72,2799.21L2267.72,2716.53L2350.39,2716.53C2356.91,2716.53 2362.2,2711.24 2362.2,2704.72L2362.2,2681.1C2362.2,2674.58 2356.91,2669.29 2350.39,2669.29L2267.72,2669.29L2267.72,2586.61C2267.72,2580.1 2262.42,2574.8 2255.91,2574.8L2232.28,2574.8C2225.76,2574.8 2220.47,2580.1 2220.47,2586.61L2220.47,2669.29L2137.8,2669.29C2131.28,2669.29 2125.98,2674.58 2125.98,2681.1L2125.98,2704.72C2125.98,2711.24 2131.28,2716.53 2137.8,2716.53L2220.47,2716.53Z" style="fill:rgb(243,243,243);"/>
        </g>
    </g>
</svg>
